<svg id="Layer_1" data-name="Layer 1" xmlns="http://www.w3.org/2000/svg" xmlns:xlink="http://www.w3.org/1999/xlink" viewBox="0 0 455.68 439"><defs><style>.cls-1{fill:url(#radial-gradient);}.cls-2,.cls-5{fill:#fff;}.cls-3{fill:url(#linear-gradient);}.cls-4{fill:url(#linear-gradient-2);}.cls-5{stroke:#000;stroke-miterlimit:10;stroke-width:2px;}.cls-6{fill:#999;}.cls-7{font-size:16px;font-family:Arial;}.cls-8{white-space:pre;}</style><radialGradient id="radial-gradient" cx="374.53" cy="436.54" r="117.15" gradientTransform="translate(-36 -215.21) scale(1 1.17)" gradientUnits="userSpaceOnUse"><stop offset="0" stop-color="#fff"/><stop offset="0.47" stop-color="#bebcbd"/><stop offset="1"/></radialGradient><linearGradient id="linear-gradient" x1="282.99" y1="263.2" x2="282.99" y2="307.52" gradientUnits="userSpaceOnUse"><stop offset="0" stop-color="#fff"/><stop offset="0.49"/></linearGradient><linearGradient id="linear-gradient-2" x1="396.61" y1="263.2" x2="396.61" y2="307.52" xlink:href="#linear-gradient"/></defs><title>researchbuddy</title><circle class="cls-1" cx="338.53" cy="295.54" r="117.15"/><ellipse class="cls-2" cx="397.58" cy="285.16" rx="33.71" ry="34.92"/><ellipse class="cls-2" cx="282.99" cy="285.36" rx="33.9" ry="35.11"/><circle class="cls-3" cx="282.99" cy="285.36" r="22.16"/><circle class="cls-4" cx="396.61" cy="285.36" r="22.16"/><path class="cls-5" d="M258,154.85V375.35c0,7.06-8.81,12.65-19,12.65H206.63L219,411.55,175.78,388H55.5C45.33,388,37,382.42,37,375.35V154.85C37,147.78,45.33,142,55.5,142H239C249.19,142,258,147.78,258,154.85Z" transform="translate(-36 -141)"/><circle class="cls-2" cx="285.22" cy="300.28" r="5.99"/><circle class="cls-2" cx="400.49" cy="300.28" r="5.99"/><ellipse class="cls-6" cx="338.53" cy="429.92" rx="86.97" ry="9.08"/><ellipse class="cls-2" cx="282.43" cy="270.86" rx="12.54" ry="5.88"/><ellipse class="cls-2" cx="396.61" cy="270.86" rx="12.54" ry="5.88"/><text class="cls-7" transform="translate(17 32.33)">It looks like you’re reading <tspan x="0" y="19.2">the research proposal for </tspan><tspan x="0" y="38.4">Kathryn</tspan><tspan x="55.14" y="38.4">’</tspan><tspan x="58.41" y="38.4">s M</tspan><tspan x="84.18" y="38.4">A</tspan><tspan class="cls-8" x="93.97" y="38.4"> thesis. </tspan><tspan x="0" y="76.8">Go to:</tspan></text>
<a xlink:href="http://www.google.com">
<text id="link1" class="cls-7" transform="translate(17 139.33)">• main text</text></a>
<text class="cls-7" transform="translate(17 165.33)">• resources cited</text><text class="cls-7" transform="translate(17 193.28)">• additional resources</text><text class="cls-7" transform="translate(17 219.83)">• appendix</text></svg>
